# xmcd
#
# Track frame offsets:
#	150
#	1441
#	3938
#	15096
#	16769
#	24499
#	28556
#	39262
#	40549
#	52920
#	55926
#	67665
#	70863
#	83648
#	94391
#	107326
#	121284
#	124563
#	139980
#	150572
#	151551
#	164649
#
# Disc length: 2338 seconds
#
# Revision: 0
# Processed by: cddbd v1.5.2PL0 Copyright (c) Steve Scherf et al.
# Submitted via: dBpowerAMP V4.0
#
DISCID=ee092016
DTITLE=Pete Denahy - All You Can Eat
DYEAR=2010
DGENRE=Country
TTITLE0=Welcome
TTITLE1=Drop of Water Intro
TTITLE2=The Drop of Water
TTITLE3=The Dung Betle Intro
TTITLE4=The Dung Beetle
TTITLE5=Worm Song Intro
TTITLE6=The Worm Song
TTITLE7=Shopping Trolley Intro
TTITLE8=The Shopping Trolley
TTITLE9=Buffet Intro
TTITLE10=The All yopu Can Eat Buffet
TTITLE11=Blackhead Intro
TTITLE12=The Blackhead
TTITLE13=The Target Song
TTITLE14=Neighbours and Hair
TTITLE15=The Hair Song
TTITLE16=Gramophone Intro
TTITLE17=The Cantankerous Gramophone
TTITLE18=Sort of Dunno Nothin'
TTITLE19=Greenhouse Gas Intro
TTITLE20=Greenhouse Gas
TTITLE21=The Petrol Head Fly
EXTD=
EXTT0=
EXTT1=
EXTT2=
EXTT3=
EXTT4=
EXTT5=
EXTT6=
EXTT7=
EXTT8=
EXTT9=
EXTT10=
EXTT11=
EXTT12=
EXTT13=
EXTT14=
EXTT15=
EXTT16=
EXTT17=
EXTT18=
EXTT19=
EXTT20=
EXTT21=
PLAYORDER=
